<svg xmlns="http://www.w3.org/2000/svg" viewBox="0 0 640 400" width="640" height="400"><defs><linearGradient id="bpbg" x1="0" y1="0" x2="1" y2="1"><stop offset="0" stop-color="#0d3346"/><stop offset=".55" stop-color="#082232"/><stop offset="1" stop-color="#04121b"/></linearGradient><pattern id="bpg1" width="16" height="16" patternUnits="userSpaceOnUse"><path d="M16 0H0V16" fill="none" stroke="#7ff3ff" stroke-opacity=".07"/></pattern><pattern id="bpg2" width="80" height="80" patternUnits="userSpaceOnUse"><path d="M80 0H0V80" fill="none" stroke="#7ff3ff" stroke-opacity=".16"/></pattern><radialGradient id="bphalo" cx="50%" cy="55%" r="55%"><stop offset="0" stop-color="#19d3c5" stop-opacity=".22"/><stop offset="1" stop-color="#19d3c5" stop-opacity="0"/></radialGradient><filter id="bpglow" x="-20%" y="-40%" width="140%" height="180%"><feGaussianBlur stdDeviation="4" result="b"/><feMerge><feMergeNode in="b"/><feMergeNode in="SourceGraphic"/></feMerge></filter></defs>
<rect width="640" height="400" fill="#050d12"/>
<path d="M18 14 H600 L624 38 V386 H42 L18 362 Z" fill="url(#bpbg)" stroke="#2f8fb0" stroke-width="2"/>
<path d="M18 14 H600 L624 38 V386 H42 L18 362 Z" fill="url(#bpg1)"/><path d="M18 14 H600 L624 38 V386 H42 L18 362 Z" fill="url(#bpg2)"/>
<ellipse cx="320" cy="230" rx="260" ry="110" fill="url(#bphalo)"/>
<path d="M30 26 h40 M30 26 v40 M612 374 h-40 M612 374 v-40" stroke="#7ff3ff" stroke-width="3"/>
<g><rect x="34" y="30" width="150" height="30" fill="#ff6a1a"/><path d="M184 30 h16 l-16 30 z" fill="#ff6a1a"/>
<text x="44" y="52" font-family="'Barlow Condensed','Arial Narrow','Helvetica Neue',Arial,sans-serif" font-size="19" font-weight="800" letter-spacing="3" fill="#0a1216">BLUEPRINT</text></g>
<text x="604" y="52" text-anchor="end" font-family="'Barlow Condensed','Arial Narrow','Helvetica Neue',Arial,sans-serif" font-size="14" font-weight="700" letter-spacing="2.5" fill="#7ff3ff">HAND CANNON</text>
<text x="38" y="93" font-family="'Barlow Condensed','Arial Narrow','Helvetica Neue',Arial,sans-serif" font-size="34" font-weight="800" letter-spacing=".5" fill="#ffffff">ANVIL</text>
<rect x="38" y="105" width="120" height="3" fill="#a7b3b8"/>
<g transform="translate(125.9 138.0) scale(1.15)" filter="url(#bpglow)"><path d="M336.1 12.1 L325.0 0.0 L318.2 0.0 L317.5 5.4 L315.4 7.5 L150.4 7.9 L146.8 10.0 L144.3 15.0 L123.9 10.4 L102.9 10.7 L95.7 7.9 L86.4 8.2 L84.3 6.1 L83.6 1.4 L81.1 5.4 L77.9 3.2 L77.9 8.6 L75.0 11.4 L60.4 12.1 L55.4 10.4 L37.9 15.7 L26.4 15.4 L20.7 10.4 L13.9 11.4 L13.9 14.6 L18.9 16.1 L25.4 23.9 L25.7 28.2 L22.5 40.4 L10.7 52.1 L12.1 68.6 L16.4 71.8 L26.8 71.1 L28.2 76.4 L25.0 85.7 L1.8 131.1 L0.0 140.7 L3.9 146.1 L9.3 148.2 L21.8 149.6 L33.6 148.6 L38.9 143.2 L38.2 128.6 L54.6 96.4 L76.1 100.7 L85.0 100.0 L92.5 96.4 L97.5 88.9 L97.1 75.4 L98.9 71.1 L102.1 77.9 L135.0 77.9 L140.7 72.9 L140.0 57.9 L141.8 56.4 L149.6 56.1 L153.9 60.0 L331.4 63.6 L336.1 48.6 Z M72.5 72.9 L83.9 71.8 L90.0 76.8 L92.9 87.1 L91.1 93.9 L88.2 97.1 L80.4 97.9 L69.6 95.4 L72.5 93.2 L69.6 75.4 Z" fill="#7ff3ff" fill-opacity=".1" fill-rule="evenodd" stroke="#a8f7ff" stroke-width="2" stroke-linejoin="round"/></g>
<g transform="translate(125.9 138.0) scale(1.15)"><path d="M336.1 12.1 L325.0 0.0 L318.2 0.0 L317.5 5.4 L315.4 7.5 L150.4 7.9 L146.8 10.0 L144.3 15.0 L123.9 10.4 L102.9 10.7 L95.7 7.9 L86.4 8.2 L84.3 6.1 L83.6 1.4 L81.1 5.4 L77.9 3.2 L77.9 8.6 L75.0 11.4 L60.4 12.1 L55.4 10.4 L37.9 15.7 L26.4 15.4 L20.7 10.4 L13.9 11.4 L13.9 14.6 L18.9 16.1 L25.4 23.9 L25.7 28.2 L22.5 40.4 L10.7 52.1 L12.1 68.6 L16.4 71.8 L26.8 71.1 L28.2 76.4 L25.0 85.7 L1.8 131.1 L0.0 140.7 L3.9 146.1 L9.3 148.2 L21.8 149.6 L33.6 148.6 L38.9 143.2 L38.2 128.6 L54.6 96.4 L76.1 100.7 L85.0 100.0 L92.5 96.4 L97.5 88.9 L97.1 75.4 L98.9 71.1 L102.1 77.9 L135.0 77.9 L140.7 72.9 L140.0 57.9 L141.8 56.4 L149.6 56.1 L153.9 60.0 L331.4 63.6 L336.1 48.6 Z M72.5 72.9 L83.9 71.8 L90.0 76.8 L92.9 87.1 L91.1 93.9 L88.2 97.1 L80.4 97.9 L69.6 95.4 L72.5 93.2 L69.6 75.4 Z" fill="none" stroke="#ffffff" stroke-width=".8" stroke-opacity=".75" stroke-dasharray="3 5" transform="translate(5 5)"/></g>
<path d="M120 330 h400 M120 324 v12 M520 324 v12 M320 326 v8" stroke="#7ff3ff" stroke-opacity=".7"/>
<text x="320" y="350" text-anchor="middle" font-family="'Barlow Condensed','Arial Narrow','Helvetica Neue',Arial,sans-serif" font-size="11" letter-spacing="3" fill="#7ff3ff" fill-opacity=".8">SCHEMATIC · NOT THE FINISHED ITEM</text>
<path d="M560 130 v170 M554 130 h12 M554 300 h12" stroke="#7ff3ff" stroke-opacity=".5"/>
<circle cx="190" cy="236" r="4" fill="none" stroke="#ff8a43" stroke-width="2"/><path d="M190 236 L150 300 h-40" fill="none" stroke="#ff8a43" stroke-width="1.5" opacity=".9"/><text x="104" y="304" text-anchor="end" font-family="'Barlow Condensed','Arial Narrow','Helvetica Neue',Arial,sans-serif" font-size="12" font-weight="700" letter-spacing="1.5" fill="#ffb38a">A-01</text><circle cx="330" cy="196" r="4" fill="none" stroke="#ff8a43" stroke-width="2"/><path d="M330 196 L380 140 h40" fill="none" stroke="#ff8a43" stroke-width="1.5" opacity=".9"/><text x="426" y="144" text-anchor="start" font-family="'Barlow Condensed','Arial Narrow','Helvetica Neue',Arial,sans-serif" font-size="12" font-weight="700" letter-spacing="1.5" fill="#ffb38a">B-02</text><circle cx="440" cy="250" r="4" fill="none" stroke="#ff8a43" stroke-width="2"/><path d="M440 250 L486 300 h40" fill="none" stroke="#ff8a43" stroke-width="1.5" opacity=".9"/><text x="532" y="304" text-anchor="start" font-family="'Barlow Condensed','Arial Narrow','Helvetica Neue',Arial,sans-serif" font-size="12" font-weight="700" letter-spacing="1.5" fill="#ffb38a">C-03</text>
<text x="44" y="370" font-family="'Barlow Condensed','Arial Narrow','Helvetica Neue',Arial,sans-serif" font-size="12" font-weight="700" letter-spacing="2" fill="#7ff3ff" fill-opacity=".75">TRN-BP-5346 · COMMON</text><rect x="470" y="356" width="3" height="14" fill="#7ff3ff" opacity=".6"/><rect x="474" y="356" width="2" height="14" fill="#7ff3ff" opacity=".6"/><rect x="478" y="356" width="1" height="14" fill="#7ff3ff" opacity=".6"/><rect x="482" y="356" width="1" height="14" fill="#7ff3ff" opacity=".6"/><rect x="486" y="356" width="2" height="14" fill="#7ff3ff" opacity=".6"/><rect x="490" y="356" width="1" height="14" fill="#7ff3ff" opacity=".6"/><rect x="494" y="356" width="2" height="14" fill="#7ff3ff" opacity=".6"/><rect x="498" y="356" width="1" height="14" fill="#7ff3ff" opacity=".6"/><rect x="502" y="356" width="1" height="14" fill="#7ff3ff" opacity=".6"/><rect x="506" y="356" width="1" height="14" fill="#7ff3ff" opacity=".6"/><rect x="510" y="356" width="1" height="14" fill="#7ff3ff" opacity=".6"/><rect x="514" y="356" width="1" height="14" fill="#7ff3ff" opacity=".6"/><rect x="518" y="356" width="1" height="14" fill="#7ff3ff" opacity=".6"/><rect x="522" y="356" width="1" height="14" fill="#7ff3ff" opacity=".6"/><rect x="526" y="356" width="2" height="14" fill="#7ff3ff" opacity=".6"/><rect x="530" y="356" width="3" height="14" fill="#7ff3ff" opacity=".6"/><rect x="534" y="356" width="2" height="14" fill="#7ff3ff" opacity=".6"/><rect x="538" y="356" width="3" height="14" fill="#7ff3ff" opacity=".6"/><rect x="542" y="356" width="2" height="14" fill="#7ff3ff" opacity=".6"/><rect x="546" y="356" width="3" height="14" fill="#7ff3ff" opacity=".6"/><rect x="550" y="356" width="2" height="14" fill="#7ff3ff" opacity=".6"/><rect x="554" y="356" width="1" height="14" fill="#7ff3ff" opacity=".6"/>
</svg>