<svg xmlns="http://www.w3.org/2000/svg" viewBox="0 0 640 400" width="640" height="400"><defs>
<radialGradient id="bg" cx="50%" cy="45%" r="75%"><stop offset="0" stop-color="#15303a"/><stop offset=".55" stop-color="#0a181e"/><stop offset="1" stop-color="#050b0e"/></radialGradient>
<pattern id="grid" width="24" height="24" patternUnits="userSpaceOnUse"><path d="M24 0H0V24" fill="none" stroke="#19d3c5" stroke-opacity=".05"/></pattern>
<linearGradient id="steelV" x1="0" y1="0" x2="0" y2="1"><stop offset="0" stop-color="#5b666c"/><stop offset=".18" stop-color="#e8eef0"/><stop offset=".32" stop-color="#b9c3c7"/><stop offset=".62" stop-color="#6b767c"/><stop offset=".85" stop-color="#3a4348"/><stop offset="1" stop-color="#252b2f"/></linearGradient>
<linearGradient id="darkV" x1="0" y1="0" x2="0" y2="1"><stop offset="0" stop-color="#3e484d"/><stop offset=".2" stop-color="#7d888d"/><stop offset=".35" stop-color="#4a5459"/><stop offset=".75" stop-color="#1f2528"/><stop offset="1" stop-color="#121618"/></linearGradient>
<linearGradient id="brassV" x1="0" y1="0" x2="0" y2="1"><stop offset="0" stop-color="#6b3f17"/><stop offset=".2" stop-color="#ffd38f"/><stop offset=".4" stop-color="#d1913f"/><stop offset=".75" stop-color="#7a4718"/><stop offset="1" stop-color="#3d220b"/></linearGradient>
<linearGradient id="copperV" x1="0" y1="0" x2="0" y2="1"><stop offset="0" stop-color="#5a2a12"/><stop offset=".22" stop-color="#ffb07a"/><stop offset=".45" stop-color="#c8642c"/><stop offset="1" stop-color="#3a1607"/></linearGradient>
<linearGradient id="whiteV" x1="0" y1="0" x2="0" y2="1"><stop offset="0" stop-color="#ffffff"/><stop offset=".5" stop-color="#dfe5e7"/><stop offset="1" stop-color="#9aa5aa"/></linearGradient>
<linearGradient id="faceL" x1="0" y1="0" x2="1" y2="1"><stop offset="0" stop-color="#cfd7da"/><stop offset="1" stop-color="#6d787d"/></linearGradient>
<linearGradient id="faceR" x1="0" y1="0" x2="1" y2="1"><stop offset="0" stop-color="#8b969b"/><stop offset="1" stop-color="#3a4348"/></linearGradient>
<linearGradient id="faceT" x1="0" y1="0" x2="1" y2="0"><stop offset="0" stop-color="#eef3f4"/><stop offset="1" stop-color="#aab4b8"/></linearGradient>
<linearGradient id="dfaceL" x1="0" y1="0" x2="1" y2="1"><stop offset="0" stop-color="#4f5a5f"/><stop offset="1" stop-color="#22282b"/></linearGradient>
<linearGradient id="dfaceR" x1="0" y1="0" x2="1" y2="1"><stop offset="0" stop-color="#343c40"/><stop offset="1" stop-color="#14181a"/></linearGradient>
<linearGradient id="dfaceT" x1="0" y1="0" x2="1" y2="0"><stop offset="0" stop-color="#6c777c"/><stop offset="1" stop-color="#3f484c"/></linearGradient>
<radialGradient id="capFace" cx="40%" cy="38%" r="70%"><stop offset="0" stop-color="#cfd7da"/><stop offset=".6" stop-color="#5d686e"/><stop offset="1" stop-color="#20262a"/></radialGradient>
<radialGradient id="specular" cx="50%" cy="50%" r="50%"><stop offset="0" stop-color="#fff" stop-opacity=".9"/><stop offset="1" stop-color="#fff" stop-opacity="0"/></radialGradient>
<filter id="sh" x="-30%" y="-30%" width="160%" height="170%"><feDropShadow dx="0" dy="14" stdDeviation="12" flood-color="#000" flood-opacity=".6"/></filter>
<filter id="glow" x="-50%" y="-50%" width="200%" height="200%"><feGaussianBlur stdDeviation="6" result="b"/><feMerge><feMergeNode in="b"/><feMergeNode in="SourceGraphic"/></feMerge></filter>
<filter id="softglow" x="-50%" y="-50%" width="200%" height="200%"><feGaussianBlur stdDeviation="3"/></filter>
<linearGradient id="gunV" x1="0" y1="0" x2="0" y2="1"><stop offset="0" stop-color="#8e999e"/><stop offset=".12" stop-color="#5d686d"/><stop offset=".45" stop-color="#363e42"/><stop offset=".8" stop-color="#1c2124"/><stop offset="1" stop-color="#121517"/></linearGradient>
<filter id="metal" x="-5%" y="-10%" width="110%" height="130%" color-interpolation-filters="sRGB"><feGaussianBlur in="SourceAlpha" stdDeviation="1.6" result="bump"/><feSpecularLighting in="bump" surfaceScale="3.2" specularConstant=".95" specularExponent="22" lighting-color="#fff4e6" result="spec"><feDistantLight azimuth="235" elevation="38"/></feSpecularLighting><feComposite in="spec" in2="SourceAlpha" operator="in" result="specIn"/><feDiffuseLighting in="bump" surfaceScale="3.2" diffuseConstant="1.05" lighting-color="#ffffff" result="diff"><feDistantLight azimuth="235" elevation="50"/></feDiffuseLighting><feComposite in="SourceGraphic" in2="diff" operator="arithmetic" k1="1.15" k2="0" k3="0" k4="0" result="lit"/><feComposite in="lit" in2="SourceAlpha" operator="in" result="litIn"/><feComposite in="litIn" in2="specIn" operator="arithmetic" k1="0" k2="1" k3=".55" k4="0"/></filter>
<filter id="inset" x="-5%" y="-10%" width="110%" height="130%"><feMorphology in="SourceAlpha" operator="erode" radius="5" result="e"/><feMorphology in="e" operator="erode" radius="1" result="e2"/><feComposite in="e" in2="e2" operator="out" result="ln"/><feOffset in="ln" dy="1.2" result="lo"/><feComposite in="lo" in2="ln" operator="out" result="hl"/><feFlood flood-color="#05080a" flood-opacity=".55"/><feComposite in2="ln" operator="in" result="dk"/><feFlood flood-color="#cfe3e6" flood-opacity=".22"/><feComposite in2="hl" operator="in" result="lt"/><feMerge><feMergeNode in="dk"/><feMergeNode in="lt"/></feMerge></filter>
<filter id="rim" x="-5%" y="-15%" width="110%" height="130%"><feOffset in="SourceAlpha" dx="1.1" dy="-1.0" result="o"/><feComposite in="o" in2="SourceAlpha" operator="out" result="r"/><feGaussianBlur in="r" stdDeviation=".45" result="rb"/><feFlood flood-color="#19d3c5" flood-opacity=".85"/><feComposite in2="rb" operator="in"/></filter></defs>
<rect width="640" height="400" fill="url(#bg)"/><rect width="640" height="400" fill="url(#grid)"/>
<ellipse cx="320" cy="300" rx="250" ry="60" fill="#ffb020" opacity=".07"/>
<ellipse cx="320" cy="318" rx="200" ry="20" fill="#000" opacity=".55" filter="url(#softglow)"/>
<g filter="url(#sh)"><g transform="translate(50.0 94.7) scale(1.350)"><path d="M0.0 69.4 L1.4 76.2 L7.5 81.2 L22.6 81.9 L26.6 84.1 L35.9 83.0 L43.8 86.3 L50.3 86.3 L56.1 83.7 L85.9 86.3 L89.5 84.8 L93.8 79.8 L102.4 80.9 L108.9 78.0 L111.4 81.6 L108.9 87.3 L95.2 87.3 L86.6 90.9 L65.4 90.2 L63.3 95.2 L71.5 116.4 L130.1 118.2 L131.2 116.4 L128.3 108.9 L135.5 108.2 L140.2 105.3 L140.5 99.6 L137.6 96.7 L135.1 89.1 L137.6 82.3 L150.2 82.3 L165.3 89.5 L188.7 89.8 L205.6 93.8 L279.6 94.9 L309.8 92.0 L314.5 95.2 L319.1 92.4 L355.1 94.2 L361.9 97.0 L366.9 93.1 L372.7 92.0 L395.0 92.4 L398.6 87.0 L397.8 81.9 L399.6 80.1 L399.6 77.6 L397.1 76.2 L399.6 72.6 L398.6 64.7 L395.3 60.0 L372.7 60.0 L365.5 56.8 L320.9 58.6 L315.9 55.0 L309.1 58.9 L288.6 59.7 L286.4 53.2 L284.3 52.1 L219.9 51.8 L208.1 50.3 L191.2 52.5 L190.1 51.0 L194.4 45.3 L193.7 40.3 L188.3 35.6 L184.0 28.8 L181.5 19.8 L177.9 16.9 L169.3 25.5 L181.9 43.5 L182.6 48.5 L179.0 51.8 L176.5 51.4 L174.3 47.8 L171.8 51.8 L141.2 51.8 L135.8 50.3 L133.3 52.5 L129.7 52.5 L119.7 39.9 L89.8 38.1 L86.6 42.0 L84.8 48.9 L72.2 56.1 L65.8 55.0 L65.0 52.1 L61.8 50.0 L50.0 50.0 L39.2 52.1 L39.5 57.9 L38.1 58.9 L27.7 57.5 L24.4 59.3 L8.6 59.3 L1.4 64.7 Z M113.6 45.6 L115.4 48.2 L114.6 54.3 L111.8 57.5 L106.7 57.1 L106.7 64.7 L98.5 67.2 L94.5 66.1 L87.0 54.3 L87.3 50.7 L101.0 42.8 L106.7 42.8 Z M176.1 0.4 L172.1 0.7 L155.6 17.6 L160.3 26.6 L164.2 26.6 L168.6 23.0 L164.2 24.1 L161.7 18.0 L177.2 2.2 Z" fill="#000" fill-rule="evenodd" filter="url(#rim)"/></g><g transform="translate(50.0 94.7) scale(1.350)"><path d="M0.0 69.4 L1.4 76.2 L7.5 81.2 L22.6 81.9 L26.6 84.1 L35.9 83.0 L43.8 86.3 L50.3 86.3 L56.1 83.7 L85.9 86.3 L89.5 84.8 L93.8 79.8 L102.4 80.9 L108.9 78.0 L111.4 81.6 L108.9 87.3 L95.2 87.3 L86.6 90.9 L65.4 90.2 L63.3 95.2 L71.5 116.4 L130.1 118.2 L131.2 116.4 L128.3 108.9 L135.5 108.2 L140.2 105.3 L140.5 99.6 L137.6 96.7 L135.1 89.1 L137.6 82.3 L150.2 82.3 L165.3 89.5 L188.7 89.8 L205.6 93.8 L279.6 94.9 L309.8 92.0 L314.5 95.2 L319.1 92.4 L355.1 94.2 L361.9 97.0 L366.9 93.1 L372.7 92.0 L395.0 92.4 L398.6 87.0 L397.8 81.9 L399.6 80.1 L399.6 77.6 L397.1 76.2 L399.6 72.6 L398.6 64.7 L395.3 60.0 L372.7 60.0 L365.5 56.8 L320.9 58.6 L315.9 55.0 L309.1 58.9 L288.6 59.7 L286.4 53.2 L284.3 52.1 L219.9 51.8 L208.1 50.3 L191.2 52.5 L190.1 51.0 L194.4 45.3 L193.7 40.3 L188.3 35.6 L184.0 28.8 L181.5 19.8 L177.9 16.9 L169.3 25.5 L181.9 43.5 L182.6 48.5 L179.0 51.8 L176.5 51.4 L174.3 47.8 L171.8 51.8 L141.2 51.8 L135.8 50.3 L133.3 52.5 L129.7 52.5 L119.7 39.9 L89.8 38.1 L86.6 42.0 L84.8 48.9 L72.2 56.1 L65.8 55.0 L65.0 52.1 L61.8 50.0 L50.0 50.0 L39.2 52.1 L39.5 57.9 L38.1 58.9 L27.7 57.5 L24.4 59.3 L8.6 59.3 L1.4 64.7 Z M113.6 45.6 L115.4 48.2 L114.6 54.3 L111.8 57.5 L106.7 57.1 L106.7 64.7 L98.5 67.2 L94.5 66.1 L87.0 54.3 L87.3 50.7 L101.0 42.8 L106.7 42.8 Z M176.1 0.4 L172.1 0.7 L155.6 17.6 L160.3 26.6 L164.2 26.6 L168.6 23.0 L164.2 24.1 L161.7 18.0 L177.2 2.2 Z" fill="url(#gunV)" fill-rule="evenodd" filter="url(#metal)"/><path d="M0.0 69.4 L1.4 76.2 L7.5 81.2 L22.6 81.9 L26.6 84.1 L35.9 83.0 L43.8 86.3 L50.3 86.3 L56.1 83.7 L85.9 86.3 L89.5 84.8 L93.8 79.8 L102.4 80.9 L108.9 78.0 L111.4 81.6 L108.9 87.3 L95.2 87.3 L86.6 90.9 L65.4 90.2 L63.3 95.2 L71.5 116.4 L130.1 118.2 L131.2 116.4 L128.3 108.9 L135.5 108.2 L140.2 105.3 L140.5 99.6 L137.6 96.7 L135.1 89.1 L137.6 82.3 L150.2 82.3 L165.3 89.5 L188.7 89.8 L205.6 93.8 L279.6 94.9 L309.8 92.0 L314.5 95.2 L319.1 92.4 L355.1 94.2 L361.9 97.0 L366.9 93.1 L372.7 92.0 L395.0 92.4 L398.6 87.0 L397.8 81.9 L399.6 80.1 L399.6 77.6 L397.1 76.2 L399.6 72.6 L398.6 64.7 L395.3 60.0 L372.7 60.0 L365.5 56.8 L320.9 58.6 L315.9 55.0 L309.1 58.9 L288.6 59.7 L286.4 53.2 L284.3 52.1 L219.9 51.8 L208.1 50.3 L191.2 52.5 L190.1 51.0 L194.4 45.3 L193.7 40.3 L188.3 35.6 L184.0 28.8 L181.5 19.8 L177.9 16.9 L169.3 25.5 L181.9 43.5 L182.6 48.5 L179.0 51.8 L176.5 51.4 L174.3 47.8 L171.8 51.8 L141.2 51.8 L135.8 50.3 L133.3 52.5 L129.7 52.5 L119.7 39.9 L89.8 38.1 L86.6 42.0 L84.8 48.9 L72.2 56.1 L65.8 55.0 L65.0 52.1 L61.8 50.0 L50.0 50.0 L39.2 52.1 L39.5 57.9 L38.1 58.9 L27.7 57.5 L24.4 59.3 L8.6 59.3 L1.4 64.7 Z M113.6 45.6 L115.4 48.2 L114.6 54.3 L111.8 57.5 L106.7 57.1 L106.7 64.7 L98.5 67.2 L94.5 66.1 L87.0 54.3 L87.3 50.7 L101.0 42.8 L106.7 42.8 Z M176.1 0.4 L172.1 0.7 L155.6 17.6 L160.3 26.6 L164.2 26.6 L168.6 23.0 L164.2 24.1 L161.7 18.0 L177.2 2.2 Z" fill="#000" fill-rule="evenodd" filter="url(#inset)"/><path d="M0.0 69.4 L1.4 76.2 L7.5 81.2 L22.6 81.9 L26.6 84.1 L35.9 83.0 L43.8 86.3 L50.3 86.3 L56.1 83.7 L85.9 86.3 L89.5 84.8 L93.8 79.8 L102.4 80.9 L108.9 78.0 L111.4 81.6 L108.9 87.3 L95.2 87.3 L86.6 90.9 L65.4 90.2 L63.3 95.2 L71.5 116.4 L130.1 118.2 L131.2 116.4 L128.3 108.9 L135.5 108.2 L140.2 105.3 L140.5 99.6 L137.6 96.7 L135.1 89.1 L137.6 82.3 L150.2 82.3 L165.3 89.5 L188.7 89.8 L205.6 93.8 L279.6 94.9 L309.8 92.0 L314.5 95.2 L319.1 92.4 L355.1 94.2 L361.9 97.0 L366.9 93.1 L372.7 92.0 L395.0 92.4 L398.6 87.0 L397.8 81.9 L399.6 80.1 L399.6 77.6 L397.1 76.2 L399.6 72.6 L398.6 64.7 L395.3 60.0 L372.7 60.0 L365.5 56.8 L320.9 58.6 L315.9 55.0 L309.1 58.9 L288.6 59.7 L286.4 53.2 L284.3 52.1 L219.9 51.8 L208.1 50.3 L191.2 52.5 L190.1 51.0 L194.4 45.3 L193.7 40.3 L188.3 35.6 L184.0 28.8 L181.5 19.8 L177.9 16.9 L169.3 25.5 L181.9 43.5 L182.6 48.5 L179.0 51.8 L176.5 51.4 L174.3 47.8 L171.8 51.8 L141.2 51.8 L135.8 50.3 L133.3 52.5 L129.7 52.5 L119.7 39.9 L89.8 38.1 L86.6 42.0 L84.8 48.9 L72.2 56.1 L65.8 55.0 L65.0 52.1 L61.8 50.0 L50.0 50.0 L39.2 52.1 L39.5 57.9 L38.1 58.9 L27.7 57.5 L24.4 59.3 L8.6 59.3 L1.4 64.7 Z M113.6 45.6 L115.4 48.2 L114.6 54.3 L111.8 57.5 L106.7 57.1 L106.7 64.7 L98.5 67.2 L94.5 66.1 L87.0 54.3 L87.3 50.7 L101.0 42.8 L106.7 42.8 Z M176.1 0.4 L172.1 0.7 L155.6 17.6 L160.3 26.6 L164.2 26.6 L168.6 23.0 L164.2 24.1 L161.7 18.0 L177.2 2.2 Z" fill="none" stroke="#0a0d0f" stroke-width="1.04" stroke-linejoin="round"/></g></g>
<path d="M0 0H640V3H0Z" fill="#ffb020"/><path d="M0 397H640V400H0Z" fill="#ffb020" opacity=".35"/>
<text x="22" y="380" font-family="'Barlow Condensed','Arial Narrow','Helvetica Neue',Arial,sans-serif" font-size="16" font-weight="700" letter-spacing="3" fill="#ffb020">WEAPON · LMG</text><text x="22" y="356" font-family="'Barlow Condensed','Arial Narrow','Helvetica Neue',Arial,sans-serif" font-size="30" font-weight="800" fill="#eef4f5">EQUALIZER</text>
</svg>