<svg xmlns="http://www.w3.org/2000/svg" viewBox="0 0 640 400" width="640" height="400"><defs>
<radialGradient id="bg" cx="50%" cy="45%" r="75%"><stop offset="0" stop-color="#15303a"/><stop offset=".55" stop-color="#0a181e"/><stop offset="1" stop-color="#050b0e"/></radialGradient>
<pattern id="grid" width="24" height="24" patternUnits="userSpaceOnUse"><path d="M24 0H0V24" fill="none" stroke="#19d3c5" stroke-opacity=".05"/></pattern>
<linearGradient id="steelV" x1="0" y1="0" x2="0" y2="1"><stop offset="0" stop-color="#5b666c"/><stop offset=".18" stop-color="#e8eef0"/><stop offset=".32" stop-color="#b9c3c7"/><stop offset=".62" stop-color="#6b767c"/><stop offset=".85" stop-color="#3a4348"/><stop offset="1" stop-color="#252b2f"/></linearGradient>
<linearGradient id="darkV" x1="0" y1="0" x2="0" y2="1"><stop offset="0" stop-color="#3e484d"/><stop offset=".2" stop-color="#7d888d"/><stop offset=".35" stop-color="#4a5459"/><stop offset=".75" stop-color="#1f2528"/><stop offset="1" stop-color="#121618"/></linearGradient>
<linearGradient id="brassV" x1="0" y1="0" x2="0" y2="1"><stop offset="0" stop-color="#6b3f17"/><stop offset=".2" stop-color="#ffd38f"/><stop offset=".4" stop-color="#d1913f"/><stop offset=".75" stop-color="#7a4718"/><stop offset="1" stop-color="#3d220b"/></linearGradient>
<linearGradient id="copperV" x1="0" y1="0" x2="0" y2="1"><stop offset="0" stop-color="#5a2a12"/><stop offset=".22" stop-color="#ffb07a"/><stop offset=".45" stop-color="#c8642c"/><stop offset="1" stop-color="#3a1607"/></linearGradient>
<linearGradient id="whiteV" x1="0" y1="0" x2="0" y2="1"><stop offset="0" stop-color="#ffffff"/><stop offset=".5" stop-color="#dfe5e7"/><stop offset="1" stop-color="#9aa5aa"/></linearGradient>
<linearGradient id="faceL" x1="0" y1="0" x2="1" y2="1"><stop offset="0" stop-color="#cfd7da"/><stop offset="1" stop-color="#6d787d"/></linearGradient>
<linearGradient id="faceR" x1="0" y1="0" x2="1" y2="1"><stop offset="0" stop-color="#8b969b"/><stop offset="1" stop-color="#3a4348"/></linearGradient>
<linearGradient id="faceT" x1="0" y1="0" x2="1" y2="0"><stop offset="0" stop-color="#eef3f4"/><stop offset="1" stop-color="#aab4b8"/></linearGradient>
<linearGradient id="dfaceL" x1="0" y1="0" x2="1" y2="1"><stop offset="0" stop-color="#4f5a5f"/><stop offset="1" stop-color="#22282b"/></linearGradient>
<linearGradient id="dfaceR" x1="0" y1="0" x2="1" y2="1"><stop offset="0" stop-color="#343c40"/><stop offset="1" stop-color="#14181a"/></linearGradient>
<linearGradient id="dfaceT" x1="0" y1="0" x2="1" y2="0"><stop offset="0" stop-color="#6c777c"/><stop offset="1" stop-color="#3f484c"/></linearGradient>
<radialGradient id="capFace" cx="40%" cy="38%" r="70%"><stop offset="0" stop-color="#cfd7da"/><stop offset=".6" stop-color="#5d686e"/><stop offset="1" stop-color="#20262a"/></radialGradient>
<radialGradient id="specular" cx="50%" cy="50%" r="50%"><stop offset="0" stop-color="#fff" stop-opacity=".9"/><stop offset="1" stop-color="#fff" stop-opacity="0"/></radialGradient>
<filter id="sh" x="-30%" y="-30%" width="160%" height="170%"><feDropShadow dx="0" dy="14" stdDeviation="12" flood-color="#000" flood-opacity=".6"/></filter>
<filter id="glow" x="-50%" y="-50%" width="200%" height="200%"><feGaussianBlur stdDeviation="6" result="b"/><feMerge><feMergeNode in="b"/><feMergeNode in="SourceGraphic"/></feMerge></filter>
<filter id="softglow" x="-50%" y="-50%" width="200%" height="200%"><feGaussianBlur stdDeviation="3"/></filter>
<linearGradient id="gunV" x1="0" y1="0" x2="0" y2="1"><stop offset="0" stop-color="#8e999e"/><stop offset=".12" stop-color="#5d686d"/><stop offset=".45" stop-color="#363e42"/><stop offset=".8" stop-color="#1c2124"/><stop offset="1" stop-color="#121517"/></linearGradient>
<filter id="metal" x="-5%" y="-10%" width="110%" height="130%" color-interpolation-filters="sRGB"><feGaussianBlur in="SourceAlpha" stdDeviation="1.6" result="bump"/><feSpecularLighting in="bump" surfaceScale="3.2" specularConstant=".95" specularExponent="22" lighting-color="#fff4e6" result="spec"><feDistantLight azimuth="235" elevation="38"/></feSpecularLighting><feComposite in="spec" in2="SourceAlpha" operator="in" result="specIn"/><feDiffuseLighting in="bump" surfaceScale="3.2" diffuseConstant="1.05" lighting-color="#ffffff" result="diff"><feDistantLight azimuth="235" elevation="50"/></feDiffuseLighting><feComposite in="SourceGraphic" in2="diff" operator="arithmetic" k1="1.15" k2="0" k3="0" k4="0" result="lit"/><feComposite in="lit" in2="SourceAlpha" operator="in" result="litIn"/><feComposite in="litIn" in2="specIn" operator="arithmetic" k1="0" k2="1" k3=".55" k4="0"/></filter>
<filter id="inset" x="-5%" y="-10%" width="110%" height="130%"><feMorphology in="SourceAlpha" operator="erode" radius="5" result="e"/><feMorphology in="e" operator="erode" radius="1" result="e2"/><feComposite in="e" in2="e2" operator="out" result="ln"/><feOffset in="ln" dy="1.2" result="lo"/><feComposite in="lo" in2="ln" operator="out" result="hl"/><feFlood flood-color="#05080a" flood-opacity=".55"/><feComposite in2="ln" operator="in" result="dk"/><feFlood flood-color="#cfe3e6" flood-opacity=".22"/><feComposite in2="hl" operator="in" result="lt"/><feMerge><feMergeNode in="dk"/><feMergeNode in="lt"/></feMerge></filter>
<filter id="rim" x="-5%" y="-15%" width="110%" height="130%"><feOffset in="SourceAlpha" dx="1.1" dy="-1.0" result="o"/><feComposite in="o" in2="SourceAlpha" operator="out" result="r"/><feGaussianBlur in="r" stdDeviation=".45" result="rb"/><feFlood flood-color="#19d3c5" flood-opacity=".85"/><feComposite in2="rb" operator="in"/></filter></defs>
<rect width="640" height="400" fill="url(#bg)"/><rect width="640" height="400" fill="url(#grid)"/>
<ellipse cx="320" cy="300" rx="250" ry="60" fill="#3aa2ff" opacity=".07"/>
<ellipse cx="320" cy="318" rx="200" ry="20" fill="#000" opacity=".55" filter="url(#softglow)"/>
<g filter="url(#sh)"><g transform="translate(140.6 60.0) scale(1.533)"><path d="M7.5 133.4 L16.3 139.3 L20.3 144.1 L25.4 144.9 L32.6 149.5 L35.6 149.7 L40.9 146.5 L44.4 139.3 L49.2 139.3 L51.9 137.4 L51.1 120.9 L58.6 99.7 L59.6 99.2 L61.5 100.8 L64.4 99.7 L65.5 93.3 L70.1 88.0 L105.6 89.6 L108.8 91.7 L112.3 90.9 L117.4 82.9 L115.8 61.2 L117.6 58.0 L129.4 47.3 L131.6 48.4 L132.9 54.5 L135.6 57.0 L228.3 58.8 L233.2 52.9 L232.4 36.9 L227.5 34.8 L232.6 30.2 L233.7 21.1 L232.1 14.4 L227.8 11.8 L226.7 3.5 L224.9 2.4 L221.9 2.9 L221.1 9.6 L216.0 12.0 L107.2 12.8 L104.8 11.0 L93.0 11.0 L88.2 14.4 L57.0 14.7 L54.8 13.6 L53.7 7.0 L50.5 2.9 L46.3 2.9 L43.0 0.0 L34.8 0.3 L33.4 1.9 L31.3 13.4 L26.5 21.1 L24.1 22.2 L9.6 22.2 L2.4 30.5 L3.2 35.0 L5.1 37.4 L1.1 42.0 L0.0 45.2 L0.3 48.7 L2.4 52.1 L8.6 54.3 L23.3 54.5 L26.7 57.0 L29.1 61.0 L9.4 115.8 L8.8 121.4 L10.2 124.9 Z M70.1 75.4 L76.5 74.9 L81.0 80.2 L84.0 80.5 L84.2 79.1 L79.7 73.5 L79.4 67.9 L81.6 64.7 L85.6 64.2 L93.3 69.0 L107.0 69.5 L108.6 72.7 L109.6 83.7 L107.5 85.6 L72.5 84.0 L70.6 82.9 Z M2.4 47.6 L2.7 43.3 L5.6 40.4 L10.4 42.8 L24.1 43.0 L27.0 45.5 L25.9 46.8 L14.7 46.8 L11.5 48.4 L12.8 50.3 L11.5 51.9 L6.4 51.9 Z" fill="#000" fill-rule="evenodd" filter="url(#rim)"/></g><g transform="translate(140.6 60.0) scale(1.533)"><path d="M7.5 133.4 L16.3 139.3 L20.3 144.1 L25.4 144.9 L32.6 149.5 L35.6 149.7 L40.9 146.5 L44.4 139.3 L49.2 139.3 L51.9 137.4 L51.1 120.9 L58.6 99.7 L59.6 99.2 L61.5 100.8 L64.4 99.7 L65.5 93.3 L70.1 88.0 L105.6 89.6 L108.8 91.7 L112.3 90.9 L117.4 82.9 L115.8 61.2 L117.6 58.0 L129.4 47.3 L131.6 48.4 L132.9 54.5 L135.6 57.0 L228.3 58.8 L233.2 52.9 L232.4 36.9 L227.5 34.8 L232.6 30.2 L233.7 21.1 L232.1 14.4 L227.8 11.8 L226.7 3.5 L224.9 2.4 L221.9 2.9 L221.1 9.6 L216.0 12.0 L107.2 12.8 L104.8 11.0 L93.0 11.0 L88.2 14.4 L57.0 14.7 L54.8 13.6 L53.7 7.0 L50.5 2.9 L46.3 2.9 L43.0 0.0 L34.8 0.3 L33.4 1.9 L31.3 13.4 L26.5 21.1 L24.1 22.2 L9.6 22.2 L2.4 30.5 L3.2 35.0 L5.1 37.4 L1.1 42.0 L0.0 45.2 L0.3 48.7 L2.4 52.1 L8.6 54.3 L23.3 54.5 L26.7 57.0 L29.1 61.0 L9.4 115.8 L8.8 121.4 L10.2 124.9 Z M70.1 75.4 L76.5 74.9 L81.0 80.2 L84.0 80.5 L84.2 79.1 L79.7 73.5 L79.4 67.9 L81.6 64.7 L85.6 64.2 L93.3 69.0 L107.0 69.5 L108.6 72.7 L109.6 83.7 L107.5 85.6 L72.5 84.0 L70.6 82.9 Z M2.4 47.6 L2.7 43.3 L5.6 40.4 L10.4 42.8 L24.1 43.0 L27.0 45.5 L25.9 46.8 L14.7 46.8 L11.5 48.4 L12.8 50.3 L11.5 51.9 L6.4 51.9 Z" fill="url(#gunV)" fill-rule="evenodd" filter="url(#metal)"/><path d="M7.5 133.4 L16.3 139.3 L20.3 144.1 L25.4 144.9 L32.6 149.5 L35.6 149.7 L40.9 146.5 L44.4 139.3 L49.2 139.3 L51.9 137.4 L51.1 120.9 L58.6 99.7 L59.6 99.2 L61.5 100.8 L64.4 99.7 L65.5 93.3 L70.1 88.0 L105.6 89.6 L108.8 91.7 L112.3 90.9 L117.4 82.9 L115.8 61.2 L117.6 58.0 L129.4 47.3 L131.6 48.4 L132.9 54.5 L135.6 57.0 L228.3 58.8 L233.2 52.9 L232.4 36.9 L227.5 34.8 L232.6 30.2 L233.7 21.1 L232.1 14.4 L227.8 11.8 L226.7 3.5 L224.9 2.4 L221.9 2.9 L221.1 9.6 L216.0 12.0 L107.2 12.8 L104.8 11.0 L93.0 11.0 L88.2 14.4 L57.0 14.7 L54.8 13.6 L53.7 7.0 L50.5 2.9 L46.3 2.9 L43.0 0.0 L34.8 0.3 L33.4 1.9 L31.3 13.4 L26.5 21.1 L24.1 22.2 L9.6 22.2 L2.4 30.5 L3.2 35.0 L5.1 37.4 L1.1 42.0 L0.0 45.2 L0.3 48.7 L2.4 52.1 L8.6 54.3 L23.3 54.5 L26.7 57.0 L29.1 61.0 L9.4 115.8 L8.8 121.4 L10.2 124.9 Z M70.1 75.4 L76.5 74.9 L81.0 80.2 L84.0 80.5 L84.2 79.1 L79.7 73.5 L79.4 67.9 L81.6 64.7 L85.6 64.2 L93.3 69.0 L107.0 69.5 L108.6 72.7 L109.6 83.7 L107.5 85.6 L72.5 84.0 L70.6 82.9 Z M2.4 47.6 L2.7 43.3 L5.6 40.4 L10.4 42.8 L24.1 43.0 L27.0 45.5 L25.9 46.8 L14.7 46.8 L11.5 48.4 L12.8 50.3 L11.5 51.9 L6.4 51.9 Z" fill="#000" fill-rule="evenodd" filter="url(#inset)"/><path d="M7.5 133.4 L16.3 139.3 L20.3 144.1 L25.4 144.9 L32.6 149.5 L35.6 149.7 L40.9 146.5 L44.4 139.3 L49.2 139.3 L51.9 137.4 L51.1 120.9 L58.6 99.7 L59.6 99.2 L61.5 100.8 L64.4 99.7 L65.5 93.3 L70.1 88.0 L105.6 89.6 L108.8 91.7 L112.3 90.9 L117.4 82.9 L115.8 61.2 L117.6 58.0 L129.4 47.3 L131.6 48.4 L132.9 54.5 L135.6 57.0 L228.3 58.8 L233.2 52.9 L232.4 36.9 L227.5 34.8 L232.6 30.2 L233.7 21.1 L232.1 14.4 L227.8 11.8 L226.7 3.5 L224.9 2.4 L221.9 2.9 L221.1 9.6 L216.0 12.0 L107.2 12.8 L104.8 11.0 L93.0 11.0 L88.2 14.4 L57.0 14.7 L54.8 13.6 L53.7 7.0 L50.5 2.9 L46.3 2.9 L43.0 0.0 L34.8 0.3 L33.4 1.9 L31.3 13.4 L26.5 21.1 L24.1 22.2 L9.6 22.2 L2.4 30.5 L3.2 35.0 L5.1 37.4 L1.1 42.0 L0.0 45.2 L0.3 48.7 L2.4 52.1 L8.6 54.3 L23.3 54.5 L26.7 57.0 L29.1 61.0 L9.4 115.8 L8.8 121.4 L10.2 124.9 Z M70.1 75.4 L76.5 74.9 L81.0 80.2 L84.0 80.5 L84.2 79.1 L79.7 73.5 L79.4 67.9 L81.6 64.7 L85.6 64.2 L93.3 69.0 L107.0 69.5 L108.6 72.7 L109.6 83.7 L107.5 85.6 L72.5 84.0 L70.6 82.9 Z M2.4 47.6 L2.7 43.3 L5.6 40.4 L10.4 42.8 L24.1 43.0 L27.0 45.5 L25.9 46.8 L14.7 46.8 L11.5 48.4 L12.8 50.3 L11.5 51.9 L6.4 51.9 Z" fill="none" stroke="#0a0d0f" stroke-width="0.91" stroke-linejoin="round"/></g></g>
<path d="M0 0H640V3H0Z" fill="#3aa2ff"/><path d="M0 397H640V400H0Z" fill="#3aa2ff" opacity=".35"/>
<text x="22" y="380" font-family="'Barlow Condensed','Arial Narrow','Helvetica Neue',Arial,sans-serif" font-size="16" font-weight="700" letter-spacing="3" fill="#3aa2ff">WEAPON · PISTOL</text><text x="22" y="356" font-family="'Barlow Condensed','Arial Narrow','Helvetica Neue',Arial,sans-serif" font-size="30" font-weight="800" fill="#eef4f5">VENATOR I</text>
</svg>